<?xml version="1.0" standalone="no"?>
<!DOCTYPE svg PUBLIC "-//W3C//DTD SVG 20010904//EN"
 "http://www.w3.org/TR/2001/REC-SVG-20010904/DTD/svg10.dtd">
<svg version="1.0" xmlns="http://www.w3.org/2000/svg"
 width="292.000000pt" height="292.000000pt" viewBox="0 0 292.000000 292.000000"
 preserveAspectRatio="xMidYMid meet">

<g transform="translate(0.000000,292.000000) scale(0.100000,-0.100000)"
fill="#000000" stroke="none">
<path d="M0 1460 l0 -1460 1460 0 1460 0 0 1460 0 1460 -1460 0 -1460 0 0
-1460z m896 1221 c47 -22 75 -57 98 -124 21 -61 21 -107 1 -107 -10 0 -15 10
-15 29 0 43 -28 112 -57 143 -33 34 -80 50 -134 46 -45 -3 -67 17 -27 25 51
10 95 6 134 -12z"/>
</g>
</svg>
